<svg aria-hidden="true" style="position: absolute; width: 0; height: 0; overflow: hidden;" version="1.1" xmlns="http://www.w3.org/2000/svg" xmlns:xlink="http://www.w3.org/1999/xlink">
    <defs>
        <symbol id="icon-close-modal" viewBox="0 0 24 24">
		    <path id="Vector" d="M18 6L6 18"  stroke-opacity="1.000000" stroke-width="1.800000" stroke-linejoin="round" stroke-linecap="round"/>
		    <path id="Vector" d="M6 6L18 18"  stroke-opacity="1.000000" stroke-width="1.800000" stroke-linejoin="round" stroke-linecap="round"/>
        </symbol>
        <symbol id="icon-like-car" viewBox="0 0 17.1774 15.1739">	
	        <path id="Vector" d="M13.88 1.06418C13.3794 0.85675 12.8428 0.75 12.301 0.75C11.7592 0.75 11.2225 0.85675 10.7219 1.06418C10.2213 1.27161 9.76648 1.57562 9.38342 1.95886L8.5885 2.75388L7.79346 1.95886C7.01965 1.18509 5.97021 0.750397 4.87598 0.750397C3.78174 0.750397 2.73218 1.18509 1.9585 1.95886C1.18469 2.73264 0.75 3.7821 0.75 4.87637C0.75 5.97064 1.18469 7.02011 1.9585 7.79385L2.75342 8.58887L8.5885 14.4239L14.4235 8.58887L15.2185 7.79385C15.6017 7.4108 15.9058 6.95599 16.1132 6.45538C16.3206 5.9548 16.4274 5.41824 16.4274 4.87637C16.4274 4.3345 16.3206 3.79794 16.1132 3.29736C15.9058 2.79675 15.6017 2.34195 15.2185 1.95886C14.8354 1.57562 14.3806 1.27161 13.88 1.06418Z" stroke-opacity="0.800000" stroke-width="1.500000" stroke-linejoin="round"/>
        </symbol>
        <symbol id="icon-chevron-down" viewBox="0 0 20 20">	
	        <path id="Vector" d="M1.00403 1.00409L6.00403 6.00409L11.004 1.00409" stroke-opacity="1.000000" stroke-width="2.000000" stroke-linejoin="round" stroke-linecap="round"/>
        </symbol>
    </defs>
</svg>
